<?xml version="1.0" encoding="UTF-8" standalone="no"?>
<!-- Created with Inkscape (http://www.inkscape.org/) -->

<svg
   xmlns:dc="http://purl.org/dc/elements/1.1/"
   xmlns:cc="http://creativecommons.org/ns#"
   xmlns:rdf="http://www.w3.org/1999/02/22-rdf-syntax-ns#"
   xmlns:svg="http://www.w3.org/2000/svg"
   xmlns="http://www.w3.org/2000/svg"
   xmlns:sodipodi="http://sodipodi.sourceforge.net/DTD/sodipodi-0.dtd"
   xmlns:inkscape="http://www.inkscape.org/namespaces/inkscape"
   width="744.09448819"
   height="1052.3622047"
   id="svg2"
   version="1.1"
   inkscape:version="0.48.2 r9819"
   sodipodi:docname="New document 1">
  <defs
     id="defs4" />
  <sodipodi:namedview
     id="base"
     pagecolor="#ffffff"
     bordercolor="#666666"
     borderopacity="1.0"
     inkscape:pageopacity="0.0"
     inkscape:pageshadow="2"
     inkscape:zoom="0.7"
     inkscape:cx="375"
     inkscape:cy="520"
     inkscape:document-units="px"
     inkscape:current-layer="layer1"
     showgrid="false"
     inkscape:window-width="1366"
     inkscape:window-height="744"
     inkscape:window-x="0"
     inkscape:window-y="24"
     inkscape:window-maximized="1" />
  <metadata
     id="metadata7">
    <rdf:RDF>
      <cc:Work
         rdf:about="">
        <dc:format>image/svg+xml</dc:format>
        <dc:type
           rdf:resource="http://purl.org/dc/dcmitype/StillImage" />
        <dc:title></dc:title>
      </cc:Work>
    </rdf:RDF>
  </metadata>
  <g
     inkscape:label="Layer 1"
     inkscape:groupmode="layer"
     id="layer1">
    <path
       sodipodi:type="arc"
       style="fill:none;stroke:#000000;stroke-width:5.31496048;stroke-miterlimit:4;stroke-opacity:1;stroke-dasharray:none"
       id="path2993"
       sodipodi:cx="205.71428"
       sodipodi:cy="358.07648"
       sodipodi:rx="51.42857"
       sodipodi:ry="51.42857"
       d="m 257.14285,358.07648 a 51.42857,51.42857 0 1 1 -102.85714,0 51.42857,51.42857 0 1 1 102.85714,0 z"
       transform="matrix(1.7395622,0,0,1.7395622,6.4329036,-357.67698)" />
    <path
       sodipodi:type="arc"
       style="fill:none;stroke:#000000;stroke-width:5.31496048;stroke-miterlimit:4;stroke-opacity:1;stroke-dasharray:none"
       id="path2993-3"
       sodipodi:cx="205.71428"
       sodipodi:cy="358.07648"
       sodipodi:rx="51.42857"
       sodipodi:ry="51.42857"
       d="m 257.14285,358.07648 a 51.42857,51.42857 0 1 1 -102.85714,0 51.42857,51.42857 0 1 1 102.85714,0 z"
       transform="matrix(1.7395622,0,0,1.7395622,272.14722,-93.391264)" />
    <path
       sodipodi:type="arc"
       style="fill:none;stroke:#000000;stroke-width:5.31496048;stroke-miterlimit:4;stroke-opacity:1;stroke-dasharray:none"
       id="path2993-3-6"
       sodipodi:cx="205.71428"
       sodipodi:cy="358.07648"
       sodipodi:rx="51.42857"
       sodipodi:ry="51.42857"
       d="m 257.14285,358.07648 a 51.42857,51.42857 0 1 1 -102.85714,0 51.42857,51.42857 0 1 1 102.85714,0 z"
       transform="matrix(1.7395622,0,0,1.7395622,12.147217,168.03731)" />
    <path
       sodipodi:type="arc"
       style="fill:none;stroke:#000000;stroke-width:5.31496048;stroke-miterlimit:4;stroke-opacity:1;stroke-dasharray:none"
       id="path2993-3-67"
       sodipodi:cx="205.71428"
       sodipodi:cy="358.07648"
       sodipodi:rx="51.42857"
       sodipodi:ry="51.42857"
       d="m 257.14285,358.07648 a 51.42857,51.42857 0 1 1 -102.85714,0 51.42857,51.42857 0 1 1 102.85714,0 z"
       transform="matrix(1.7395622,0,0,1.7395622,-250.70993,-87.676983)" />
    <path
       sodipodi:type="arc"
       style="fill:none;stroke:#000000;stroke-width:5.31496048;stroke-miterlimit:4;stroke-opacity:1;stroke-dasharray:none"
       id="path3110"
       sodipodi:cx="107.14286"
       sodipodi:cy="533.79077"
       sodipodi:rx="112.85714"
       sodipodi:ry="112.85714"
       d="m 220,533.79077 a 112.85714,112.85714 0 1 1 -225.7142792,0 112.85714,112.85714 0 1 1 225.7142792,0 z" />
    <path
       transform="translate(258.57143,-267.14287)"
       sodipodi:type="arc"
       style="fill:none;stroke:#000000;stroke-width:5.31496048;stroke-miterlimit:4;stroke-opacity:1;stroke-dasharray:none"
       id="path3110-9"
       sodipodi:cx="107.14286"
       sodipodi:cy="533.79077"
       sodipodi:rx="112.85714"
       sodipodi:ry="112.85714"
       d="m 220,533.79077 a 112.85714,112.85714 0 1 1 -225.7142792,0 112.85714,112.85714 0 1 1 225.7142792,0 z" />
    <path
       transform="translate(524.28571,-4.2857341)"
       sodipodi:type="arc"
       style="fill:none;stroke:#000000;stroke-width:5.31496048;stroke-miterlimit:4;stroke-opacity:1;stroke-dasharray:none"
       id="path3110-4"
       sodipodi:cx="107.14286"
       sodipodi:cy="533.79077"
       sodipodi:rx="112.85714"
       sodipodi:ry="112.85714"
       d="m 220,533.79077 a 112.85714,112.85714 0 1 1 -225.7142792,0 112.85714,112.85714 0 1 1 225.7142792,0 z" />
    <path
       transform="translate(262.85714,255.71427)"
       sodipodi:type="arc"
       style="fill:none;stroke:#000000;stroke-width:5.31496048;stroke-miterlimit:4;stroke-opacity:1;stroke-dasharray:none"
       id="path3110-7"
       sodipodi:cx="107.14286"
       sodipodi:cy="533.79077"
       sodipodi:rx="112.85714"
       sodipodi:ry="112.85714"
       d="m 220,533.79077 a 112.85714,112.85714 0 1 1 -225.7142792,0 112.85714,112.85714 0 1 1 225.7142792,0 z" />
    <path
       sodipodi:type="arc"
       style="fill:none;stroke:#000000;stroke-width:5.31496048;stroke-miterlimit:4;stroke-opacity:1;stroke-dasharray:none"
       id="path3176"
       sodipodi:cx="175"
       sodipodi:cy="770.2193"
       sodipodi:rx="85"
       sodipodi:ry="85"
       d="m 260,770.2193 a 85,85 0 1 1 -170,0 85,85 0 1 1 170,0 z"
       transform="translate(8.5714287,-54.285714)" />
    <path
       sodipodi:type="arc"
       style="fill:none;stroke:#000000;stroke-width:5.31496048;stroke-miterlimit:4;stroke-opacity:1;stroke-dasharray:none"
       id="path3176-2"
       sodipodi:cx="175"
       sodipodi:cy="770.2193"
       sodipodi:rx="85"
       sodipodi:ry="85"
       d="m 260,770.2193 a 85,85 0 1 1 -170,0 85,85 0 1 1 170,0 z"
       transform="translate(12.142853,-419.28569)" />
    <path
       sodipodi:type="arc"
       style="fill:none;stroke:#000000;stroke-width:5.31496048;stroke-miterlimit:4;stroke-opacity:1;stroke-dasharray:none"
       id="path3176-2-1"
       sodipodi:cx="175"
       sodipodi:cy="770.2193"
       sodipodi:rx="85"
       sodipodi:ry="85"
       d="m 260,770.2193 a 85,85 0 1 1 -170,0 85,85 0 1 1 170,0 z"
       transform="translate(369.28571,-419.28569)" />
    <path
       sodipodi:type="arc"
       style="fill:none;stroke:#000000;stroke-width:5.31496048;stroke-miterlimit:4;stroke-opacity:1;stroke-dasharray:none"
       id="path3176-2-2"
       sodipodi:cx="175"
       sodipodi:cy="770.2193"
       sodipodi:rx="85"
       sodipodi:ry="85"
       d="m 260,770.2193 a 85,85 0 1 1 -170,0 85,85 0 1 1 170,0 z"
       transform="translate(376.42857,-60.714261)" />
  </g>
</svg>
