<?xml version="1.0" encoding="UTF-8" standalone="no"?>
<!-- Created with Inkscape (http://www.inkscape.org/) -->

<svg
   xmlns:dc="http://purl.org/dc/elements/1.1/"
   xmlns:cc="http://creativecommons.org/ns#"
   xmlns:rdf="http://www.w3.org/1999/02/22-rdf-syntax-ns#"
   xmlns:svg="http://www.w3.org/2000/svg"
   xmlns="http://www.w3.org/2000/svg"
   xmlns:sodipodi="http://sodipodi.sourceforge.net/DTD/sodipodi-0.dtd"
   xmlns:inkscape="http://www.inkscape.org/namespaces/inkscape"
   width="744.09448819"
   height="1052.3622047"
   id="svg2"
   version="1.1"
   inkscape:version="0.48.2 r9819"
   sodipodi:docname="drawing.svg">
  <defs
     id="defs4" />
  <sodipodi:namedview
     id="base"
     pagecolor="#ffffff"
     bordercolor="#666666"
     borderopacity="1.0"
     inkscape:pageopacity="0.0"
     inkscape:pageshadow="2"
     inkscape:zoom="0.7"
     inkscape:cx="123.57143"
     inkscape:cy="520"
     inkscape:document-units="px"
     inkscape:current-layer="layer1"
     showgrid="false"
     inkscape:window-width="1366"
     inkscape:window-height="744"
     inkscape:window-x="0"
     inkscape:window-y="24"
     inkscape:window-maximized="1" />
  <metadata
     id="metadata7">
    <rdf:RDF>
      <cc:Work
         rdf:about="">
        <dc:format>image/svg+xml</dc:format>
        <dc:type
           rdf:resource="http://purl.org/dc/dcmitype/StillImage" />
        <dc:title />
      </cc:Work>
    </rdf:RDF>
  </metadata>
  <g
     inkscape:label="Layer 1"
     inkscape:groupmode="layer"
     id="layer1">
    <path
       sodipodi:type="arc"
       style="fill:none;stroke:#000000;stroke-opacity:1;stroke-width:3.87560311;stroke-miterlimit:4;stroke-dasharray:none"
       id="path3763"
       sodipodi:cx="-48.57143"
       sodipodi:cy="259.50504"
       sodipodi:rx="51.42857"
       sodipodi:ry="51.42857"
       d="m 2.8571396,259.50504 a 51.42857,51.42857 0 1 1 -102.8571396,0 51.42857,51.42857 0 1 1 102.8571396,0 z"
       transform="matrix(1.3713893,0,0,1.3713893,437.32462,-85.663104)" />
    <path
       sodipodi:type="arc"
       style="fill:none;stroke:#000000;stroke-opacity:1;stroke-width:3.87560311;stroke-miterlimit:4;stroke-dasharray:none"
       id="path3763-5"
       sodipodi:cx="-48.57143"
       sodipodi:cy="259.50504"
       sodipodi:rx="51.42857"
       sodipodi:ry="51.42857"
       d="m 2.8571396,259.50504 a 51.42857,51.42857 0 1 1 -102.8571396,0 51.42857,51.42857 0 1 1 102.8571396,0 z"
       transform="matrix(1.3713893,0,0,1.3713893,685.18177,93.622611)" />
    <path
       sodipodi:type="arc"
       style="fill:none;stroke:#000000;stroke-opacity:1;stroke-width:3.87560311;stroke-miterlimit:4;stroke-dasharray:none"
       id="path3763-0"
       sodipodi:cx="-48.57143"
       sodipodi:cy="259.50504"
       sodipodi:rx="51.42857"
       sodipodi:ry="51.42857"
       d="m 2.8571396,259.50504 a 51.42857,51.42857 0 1 1 -102.8571396,0 51.42857,51.42857 0 1 1 102.8571396,0 z"
       transform="matrix(1.3713893,0,0,1.3713893,590.89605,382.19404)" />
    <path
       sodipodi:type="arc"
       style="fill:none;stroke:#000000;stroke-opacity:1;stroke-width:3.87560311;stroke-miterlimit:4;stroke-dasharray:none"
       id="path3763-03"
       sodipodi:cx="-48.57143"
       sodipodi:cy="259.50504"
       sodipodi:rx="51.42857"
       sodipodi:ry="51.42857"
       d="m 2.8571396,259.50504 a 51.42857,51.42857 0 1 1 -102.8571396,0 51.42857,51.42857 0 1 1 102.8571396,0 z"
       transform="matrix(1.3713893,0,0,1.3713893,285.18177,383.62262)" />
    <path
       sodipodi:type="arc"
       style="fill:none;stroke:#000000;stroke-opacity:1;stroke-width:3.87560311;stroke-miterlimit:4;stroke-dasharray:none"
       id="path3763-9"
       sodipodi:cx="-48.57143"
       sodipodi:cy="259.50504"
       sodipodi:rx="51.42857"
       sodipodi:ry="51.42857"
       d="m 2.8571396,259.50504 a 51.42857,51.42857 0 1 1 -102.8571396,0 51.42857,51.42857 0 1 1 102.8571396,0 z"
       transform="matrix(1.3713893,0,0,1.3713893,189.46748,95.051186)" />
    <path
       sodipodi:type="arc"
       style="fill:none;stroke:#000000;stroke-opacity:1;stroke-width:5.31496063;stroke-miterlimit:4;stroke-dasharray:none"
       id="path3822"
       sodipodi:cx="31.428572"
       sodipodi:cy="429.50504"
       sodipodi:rx="95.714287"
       sodipodi:ry="95.714287"
       d="m 127.14286,429.50504 a 95.714287,95.714287 0 1 1 -191.428575,0 95.714287,95.714287 0 1 1 191.428575,0 z"
       transform="translate(92.857143,21.428571)" />
    <path
       sodipodi:type="arc"
       style="fill:none;stroke:#000000;stroke-opacity:1;stroke-width:5.31496063;stroke-miterlimit:4;stroke-dasharray:none"
       id="path3822-0"
       sodipodi:cx="31.428572"
       sodipodi:cy="429.50504"
       sodipodi:rx="95.714287"
       sodipodi:ry="95.714287"
       d="m 127.14286,429.50504 a 95.714287,95.714287 0 1 1 -191.428575,0 95.714287,95.714287 0 1 1 191.428575,0 z"
       transform="translate(338.57143,-158.57142)" />
    <path
       sodipodi:type="arc"
       style="fill:none;stroke:#000000;stroke-opacity:1;stroke-width:5.31496063;stroke-miterlimit:4;stroke-dasharray:none"
       id="path3822-9"
       sodipodi:cx="31.428572"
       sodipodi:cy="429.50504"
       sodipodi:rx="95.714287"
       sodipodi:ry="95.714287"
       d="m 127.14286,429.50504 a 95.714287,95.714287 0 1 1 -191.428575,0 95.714287,95.714287 0 1 1 191.428575,0 z"
       transform="translate(587.14286,18.571436)" />
    <path
       sodipodi:type="arc"
       style="fill:none;stroke:#000000;stroke-opacity:1;stroke-width:5.31496063;stroke-miterlimit:4;stroke-dasharray:none"
       id="path3822-8"
       sodipodi:cx="31.428572"
       sodipodi:cy="429.50504"
       sodipodi:rx="95.714287"
       sodipodi:ry="95.714287"
       d="m 127.14286,429.50504 a 95.714287,95.714287 0 1 1 -191.428575,0 95.714287,95.714287 0 1 1 191.428575,0 z"
       transform="translate(492.85715,308.57143)" />
    <path
       sodipodi:type="arc"
       style="fill:none;stroke:#000000;stroke-opacity:1;stroke-width:5.31496063;stroke-miterlimit:4;stroke-dasharray:none"
       id="path3822-4"
       sodipodi:cx="31.428572"
       sodipodi:cy="429.50504"
       sodipodi:rx="95.714287"
       sodipodi:ry="95.714287"
       d="m 127.14286,429.50504 a 95.714287,95.714287 0 1 1 -191.428575,0 95.714287,95.714287 0 1 1 191.428575,0 z"
       transform="translate(187.14286,310)" />
    <path
       sodipodi:type="arc"
       style="fill:none;stroke:#000000;stroke-width:3.8756032;stroke-miterlimit:4;stroke-opacity:1;stroke-dasharray:none"
       id="path3763-9-2"
       sodipodi:cx="-48.57143"
       sodipodi:cy="259.50504"
       sodipodi:rx="51.42857"
       sodipodi:ry="51.42857"
       d="m 2.8571396,259.50504 a 51.42857,51.42857 0 1 1 -102.8571396,0 51.42857,51.42857 0 1 1 102.8571396,0 z"
       transform="matrix(1.2107745,0,0,1.2107745,280.23762,12.445813)" />
    <path
       sodipodi:type="arc"
       style="fill:none;stroke:#000000;stroke-width:3.8756032;stroke-miterlimit:4;stroke-opacity:1;stroke-dasharray:none"
       id="path3763-9-2-6"
       sodipodi:cx="-48.57143"
       sodipodi:cy="259.50504"
       sodipodi:rx="51.42857"
       sodipodi:ry="51.42857"
       d="m 2.8571396,259.50504 a 51.42857,51.42857 0 1 1 -102.8571396,0 51.42857,51.42857 0 1 1 102.8571396,0 z"
       transform="matrix(1.2107745,0,0,1.2107745,578.80905,9.5886746)" />
    <path
       sodipodi:type="arc"
       style="fill:none;stroke:#000000;stroke-width:3.8756032;stroke-miterlimit:4;stroke-opacity:1;stroke-dasharray:none"
       id="path3763-9-2-9"
       sodipodi:cx="-48.57143"
       sodipodi:cy="259.50504"
       sodipodi:rx="51.42857"
       sodipodi:ry="51.42857"
       d="m 2.8571396,259.50504 a 51.42857,51.42857 0 1 1 -102.8571396,0 51.42857,51.42857 0 1 1 102.8571396,0 z"
       transform="matrix(1.2107745,0,0,1.2107745,670.23762,292.44582)" />
    <path
       sodipodi:type="arc"
       style="fill:none;stroke:#000000;stroke-width:3.8756032;stroke-miterlimit:4;stroke-opacity:1;stroke-dasharray:none"
       id="path3763-9-2-4"
       sodipodi:cx="-48.57143"
       sodipodi:cy="259.50504"
       sodipodi:rx="51.42857"
       sodipodi:ry="51.42857"
       d="m 2.8571396,259.50504 a 51.42857,51.42857 0 1 1 -102.8571396,0 51.42857,51.42857 0 1 1 102.8571396,0 z"
       transform="matrix(1.2107745,0,0,1.2107745,430.23762,466.73153)" />
    <path
       sodipodi:type="arc"
       style="fill:none;stroke:#000000;stroke-width:3.8756032;stroke-miterlimit:4;stroke-opacity:1;stroke-dasharray:none"
       id="path3763-9-2-5"
       sodipodi:cx="-48.57143"
       sodipodi:cy="259.50504"
       sodipodi:rx="51.42857"
       sodipodi:ry="51.42857"
       d="m 2.8571396,259.50504 a 51.42857,51.42857 0 1 1 -102.8571396,0 51.42857,51.42857 0 1 1 102.8571396,0 z"
       transform="matrix(1.2107745,0,0,1.2107745,187.38048,295.30296)" />
  </g>
</svg>
